<svg id="Ebene_1" data-name="Ebene 1" xmlns="http://www.w3.org/2000/svg" viewBox="0 0 261.21 231.6"><defs><style>.cls-1{fill:#a3aaa9;}</style></defs><path class="cls-1" d="M357.59,302.8a13.33,13.33,0,0,0-7.55,2.33l-36.89-27.44a58.29,58.29,0,0,0,8.19-19.58H338a13.41,13.41,0,1,0-.27-8.81H322.41a57.88,57.88,0,0,0-6.17-27.6l28.9-24.79a13.44,13.44,0,1,0-6.51-6l-26.83,23a94.76,94.76,0,0,0-22.7-23.74c-2.62-2-5.3-3.77-8-5.44l5-6.54a13.11,13.11,0,0,0,2.44.23,13.45,13.45,0,1,0-10.15-4.65l-5.11,6.62C262,174.72,250.26,171.76,239,172l-7.88-26.11a13.44,13.44,0,1,0-8.51,2.28L230.09,173a53.07,53.07,0,0,0-23.5,10.77l-4-6.17a13.41,13.41,0,1,0-6.6,6l4.05,6.23a69.22,69.22,0,0,0-4.89,5.82,71.91,71.91,0,0,0-7.91,13.35c-11.84-6.49-28.17-15.64-42.56-23.78a13.43,13.43,0,1,0-5.22,7.16c11.69,6.61,30.8,17.37,44.6,24.91a72.87,72.87,0,0,0-2.65,12L159,224.65a13.42,13.42,0,1,0-2.4,8.5l24.15,4.95a72.43,72.43,0,0,0,3.14,21.64L134.43,283a13.43,13.43,0,1,0,2.17,8.7L187,268a72,72,0,0,0,5.48,10.09l-12.06,7.48a13.42,13.42,0,1,0,5,10.42,13.59,13.59,0,0,0-.34-2.94l12.73-7.89a72.13,72.13,0,0,0,11.79,11.12,70.67,70.67,0,0,0,7.22,4.75L202.1,326.68a13.42,13.42,0,1,0,9.71,12.89,13.29,13.29,0,0,0-2.5-7.77L224.66,305a71.54,71.54,0,0,0,23.88,5.57l-.43,6.09a13.41,13.41,0,1,0,8.78.61l.47-6.75a72.14,72.14,0,0,0,21.57-4.79l9.15,22.83a13.43,13.43,0,1,0,9.53-4,14.17,14.17,0,0,0-1.6.1L286.93,302a71.67,71.67,0,0,0,21-17.21l36.83,27.39a13.13,13.13,0,0,0-.62,4,13.43,13.43,0,1,0,13.42-13.43Z" transform="translate(-109.81 -121.4)"/></svg>